<?xml version="1.0" standalone="no"?>
<!DOCTYPE svg PUBLIC "-//W3C//DTD SVG 20010904//EN"
 "http://www.w3.org/TR/2001/REC-SVG-20010904/DTD/svg10.dtd">
<svg version="1.0" xmlns="http://www.w3.org/2000/svg"
 width="119.000000pt" height="119.000000pt" viewBox="0 0 119.000000 119.000000"
 preserveAspectRatio="xMidYMid meet">
<metadata>
Created by potrace 1.11, written by Peter Selinger 2001-2013
</metadata>
<g transform="translate(0.000000,119.000000) scale(0.100000,-0.100000)"
fill="#000000" stroke="none">
<path d="M0 595 l0 -595 595 0 595 0 0 595 0 595 -595 0 -595 0 0 -595z m731
469 c88 -26 150 -63 215 -128 105 -105 149 -220 142 -370 -6 -109 -30 -182
-88 -265 -104 -149 -301 -231 -479 -201 -157 26 -295 129 -365 272 -137 281
11 608 314 694 65 18 196 17 261 -2z"/>
<path d="M458 1041 c-217 -70 -361 -293 -329 -513 20 -141 92 -257 206 -333
264 -175 622 -48 715 254 65 210 -27 440 -221 554 -97 57 -260 73 -371 38z
m285 -184 c82 -29 148 -57 148 -62 -1 -6 -22 -17 -49 -26 l-47 -16 -3 -91 c-3
-89 -4 -92 -30 -106 -78 -40 -226 -45 -322 -10 l-50 18 0 93 c0 55 -4 93 -10
93 -5 0 -10 -22 -10 -50 0 -38 -4 -50 -15 -50 -12 0 -15 13 -15 59 0 57 -1 59
-32 70 -21 8 -28 15 -22 21 8 8 287 108 304 109 3 0 72 -24 153 -52z m-433
-207 c10 -5 26 -32 35 -60 13 -39 21 -50 38 -50 36 0 175 -87 192 -120 19 -37
21 -154 3 -148 -8 3 -14 29 -16 69 -2 49 -8 69 -25 87 -28 30 -145 95 -157 87
-21 -13 -8 -34 35 -60 25 -14 43 -30 40 -36 -13 -21 -115 53 -115 83 0 12 -8
45 -17 75 -12 38 -22 53 -34 53 -28 0 -28 -10 -3 -94 22 -72 29 -83 84 -133
54 -49 60 -59 60 -94 0 -21 -4 -39 -10 -39 -5 0 -10 14 -10 31 0 24 -13 43
-63 92 -59 58 -65 68 -87 146 l-24 84 23 18 c27 22 27 22 51 9z m610 -8 l22
-18 -23 -84 c-21 -77 -29 -91 -81 -146 -46 -48 -58 -67 -58 -92 0 -18 -4 -32
-10 -32 -5 0 -10 18 -10 41 0 36 6 46 55 92 48 45 58 61 75 122 25 87 25 105
2 105 -14 0 -23 -14 -35 -60 -10 -33 -17 -68 -17 -79 0 -10 -12 -27 -27 -36
-16 -10 -38 -25 -50 -32 -13 -9 -24 -10 -27 -4 -3 5 14 22 39 38 44 28 55 46
35 58 -14 9 -145 -69 -165 -97 -9 -15 -15 -45 -15 -85 0 -35 -4 -63 -10 -63
-6 0 -10 30 -10 69 0 54 4 74 21 95 25 32 148 106 175 106 16 0 23 11 33 50
11 43 30 69 52 70 4 0 17 -8 29 -18z"/>
<path d="M451 839 c-63 -21 -116 -40 -118 -43 -6 -6 239 -86 262 -85 11 0 74
19 140 43 l119 43 -124 41 c-69 23 -134 42 -145 41 -11 0 -71 -18 -134 -40z"/>
<path d="M412 658 l3 -81 40 -15 c53 -19 207 -20 260 -1 l40 14 3 82 3 82 -86
-29 -85 -29 -87 30 c-48 16 -88 29 -90 29 -2 0 -3 -37 -1 -82z"/>
</g>
</svg>
