<svg width="177" height="174" viewBox="0 0 177 174" fill="none" xmlns="http://www.w3.org/2000/svg">
<g clip-path="url(#clip0)">
<path d="M165.2 12.0333V0.5H11.8V12.0333H0V164.85H74.7525C75.9481 164.795 77.0702 165.416 77.6348 166.448C79.4815 170.704 83.7495 173.472 88.4784 173.479C93.2088 173.487 97.4854 170.735 99.3464 166.485C99.9053 165.434 101.037 164.796 102.247 164.85H177V12.0333H165.2ZM29.5 6.26667H41.3V21.0606L35.4 17.2228L29.5 21.0606V6.26667ZM17.7 6.26667H23.6V31.8394L35.4 24.1439L47.2 31.8337V6.26667H85.55V98.5333H91.45V6.26667H159.3V147.55H91.45V141.783H85.55V147.55H17.7V6.26667ZM171.1 159.083H102.247C98.668 159.02 95.3925 161.044 93.916 164.233C92.9797 166.352 90.8393 167.722 88.477 167.712C86.1161 167.704 83.9857 166.318 83.0667 164.193C81.5831 161.023 78.3176 159.017 74.7525 159.083H5.9V17.8H11.8V153.317H165.2V17.8H171.1V159.083Z" fill="#4054B2"/>
<path d="M23.6001 95.65H29.5001V101.417H23.6001V95.65Z" fill="#4054B2"/>
<path d="M35.3999 95.65H58.9999V101.417H35.3999V95.65Z" fill="#4054B2"/>
<path d="M23.6001 107.183H29.5001V112.95H23.6001V107.183Z" fill="#4054B2"/>
<path d="M35.3999 107.183H58.9999V112.95H35.3999V107.183Z" fill="#4054B2"/>
<path d="M23.6001 118.717H29.5001V124.483H23.6001V118.717Z" fill="#4054B2"/>
<path d="M35.3999 118.717H58.9999V124.483H35.3999V118.717Z" fill="#4054B2"/>
<path d="M153.4 12.0333H97.3501V40.8667H153.4V12.0333ZM147.5 35.1H103.25V17.8H147.5V35.1Z" fill="#4054B2"/>
<path d="M29.5001 46.6333H73.7501V78.35H79.6501V40.8667H23.6001V84.1167H64.2778V78.35H29.5001V46.6333Z" fill="#4054B2"/>
<path d="M105.905 124.483H109.445C110.841 131.203 116.885 136.031 123.9 136.031C130.915 136.031 136.959 131.203 138.355 124.483H141.6C144.858 124.483 147.5 121.901 147.5 118.717V89.8833C147.5 86.6987 144.858 84.1167 141.6 84.1167H135.7V89.8833H141.6V118.717H138.355C136.959 111.997 130.915 107.169 123.9 107.169C116.885 107.169 110.841 111.997 109.445 118.717H105.905C104.509 111.997 98.465 107.169 91.4501 107.169C84.4352 107.169 78.3912 111.997 76.9954 118.717H73.7501V89.8833H79.6501V84.1167H73.7501C70.4918 84.1167 67.8501 86.6987 67.8501 89.8833V118.717C67.8501 121.901 70.4918 124.483 73.7501 124.483H76.9954C78.3912 131.203 84.4352 136.031 91.4501 136.031C98.465 136.031 104.509 131.203 105.905 124.483ZM123.9 112.95C128.787 112.95 132.75 116.823 132.75 121.6C132.75 126.377 128.787 130.25 123.9 130.25C119.013 130.25 115.05 126.377 115.05 121.6C115.05 116.823 119.013 112.95 123.9 112.95ZM82.6001 121.6C82.6001 116.823 86.5627 112.95 91.4501 112.95C96.3375 112.95 100.3 116.823 100.3 121.6C100.3 126.377 96.3375 130.25 91.4501 130.25C86.5627 130.25 82.6001 126.377 82.6001 121.6Z" fill="#4054B2"/>
<path d="M103.25 49.5167H144.55V55.2833H103.25V49.5167Z" fill="#4054B2"/>
<path d="M103.25 61.05H144.55V66.8167H103.25V61.05Z" fill="#4054B2"/>
<path d="M103.25 72.5833H144.55V78.35H103.25V72.5833Z" fill="#4054B2"/>
<path d="M56.0498 32.2167H76.6998V37.9833H56.0498V32.2167Z" fill="#4054B2"/>
<path d="M56.0498 20.6833H76.6998V26.45H56.0498V20.6833Z" fill="#4054B2"/>
</g>
<defs>
<clipPath id="clip0">
<rect y="0.5" width="177" height="173" fill="white"/>
</clipPath>
</defs>
</svg>
