<svg width="177" height="174" fill="none" xmlns="http://www.w3.org/2000/svg"><g clip-path="url(#clip0)"><path d="M0 .5h177v173H0z"/><path d="M56.05 110.067h-35.4C9.25 110.079.013 119.108 0 130.25v43.25h76.7v-43.25c-.013-11.142-9.25-20.171-20.65-20.183zm-11.414 5.766l-6.286 9.228-6.286-9.228h12.572zm26.164 51.9H59v-31.716h-5.9v31.716H23.6v-31.716h-5.9v31.716H5.9V130.25c.01-7.959 6.607-14.407 14.75-14.417h4.321l13.379 19.606 13.379-19.606h4.321c8.143.01 14.74 6.458 14.75 14.417v37.483zM17.7 78.35V87c0 11.148 9.245 20.183 20.65 20.183S59 98.148 59 87V58.167c0-4.777-3.963-8.65-8.85-8.65H0V61.05c.01 9.551 7.928 17.29 17.7 17.3zM53.1 87c0 7.962-6.604 14.417-14.75 14.417S23.6 94.962 23.6 87v-8.65h29.5V87zM5.9 55.283h44.25c1.63 0 2.95 1.291 2.95 2.884v14.416H17.7c-6.516 0-11.8-5.164-11.8-11.533v-5.767z" fill="#4054B2"/><path d="M171.1 87V9.15c0-4.777-3.963-8.65-8.85-8.65H50.15c-4.888 0-8.85 3.873-8.85 8.65v34.6h5.9V9.15c0-1.592 1.32-2.883 2.95-2.883h112.1c1.629 0 2.95 1.29 2.95 2.883V87H64.9v5.767h106.2v5.766H59v5.767h118V87h-5.9zM116.672 150.595c3.834-3.1 5.266-8.218 3.581-12.793-1.687-4.576-6.128-7.627-11.103-7.627s-9.416 3.051-11.103 7.627c-1.685 4.575-.253 9.693 3.581 12.793-7.451.791-13.105 6.93-13.128 14.255v8.65h41.3v-8.65c-.023-7.325-5.677-13.464-13.128-14.255zm-7.522-14.578c3.258 0 5.9 2.582 5.9 5.766 0 3.185-2.642 5.767-5.9 5.767-3.258 0-5.9-2.582-5.9-5.767 0-3.184 2.642-5.766 5.9-5.766zm14.75 31.716H94.4v-2.883c0-4.777 3.963-8.65 8.85-8.65h11.8c4.887 0 8.85 3.873 8.85 8.65v2.883zM163.872 150.595c3.835-3.1 5.266-8.218 3.581-12.793-1.687-4.576-6.128-7.627-11.103-7.627s-9.416 3.051-11.103 7.627c-1.685 4.575-.253 9.693 3.581 12.793-7.451.791-13.105 6.93-13.128 14.255v8.65H177v-8.65c-.023-7.325-5.677-13.464-13.128-14.255zm-7.522-14.578c3.258 0 5.9 2.582 5.9 5.766 0 3.185-2.642 5.767-5.9 5.767-3.258 0-5.9-2.582-5.9-5.767 0-3.184 2.642-5.766 5.9-5.766zm14.75 31.716h-29.5v-2.883c0-4.777 3.963-8.65 8.85-8.65h11.8c4.888 0 8.85 3.873 8.85 8.65v2.883z" fill="#4054B2"/><path d="M77.396 26.45l-9.439 33.841 5.693 1.518 3.425-12.292h11.05l3.43 12.292 5.692-1.518-9.442-33.84H77.396zm1.29 17.3l3.219-11.533h1.391l3.22 11.533h-7.83zM116.525 26.45H103.25v34.6h13.275c4.199.005 7.981-2.478 9.564-6.278 1.582-3.801.649-8.16-2.36-11.022 3.009-2.862 3.942-7.221 2.36-11.022-1.583-3.8-5.365-6.284-9.564-6.278zm0 28.833h-7.375v-8.65h7.375c2.444 0 4.425 1.936 4.425 4.325 0 2.39-1.981 4.325-4.425 4.325zm0-14.416h-7.375v-8.65h7.375c2.444 0 4.425 1.935 4.425 4.325 0 2.389-1.981 4.325-4.425 4.325zM147.5 32.217h5.9V26.45h-5.9c-8.143.01-14.74 6.458-14.75 14.417v5.766c.01 7.96 6.607 14.407 14.75 14.417h5.9v-5.767h-5.9c-4.887 0-8.85-3.873-8.85-8.65v-5.766c0-4.777 3.963-8.65 8.85-8.65zM79.65 72.583h5.9v5.767h-5.9v-5.767zM94.4 72.583h5.9v5.767h-5.9v-5.767zM109.15 72.583h5.9v5.767h-5.9v-5.767zM123.9 72.583h5.9v5.767h-5.9v-5.767zM138.65 72.583h5.9v5.767h-5.9v-5.767z" fill="#4054B2"/></g><defs><clipPath id="clip0"><path fill="#fff" d="M0 .5h177v173H0z"/></clipPath></defs></svg>