<svg width="50" height="50" fill="none" xmlns="http://www.w3.org/2000/svg"><g clip-path="url(#clip0)" fill="#4054B2"><path d="M36.573 20.32v3.253h-2.34a2.558 2.558 0 01-1.397-.407l-.995-.643L45.322 9.456a3.98 3.98 0 000-5.752c-1.638-1.589-4.295-1.589-5.934 0L20.507 22.006v-.06h-4.914c-2.376.005-4.612 1.089-6.042 2.928L3.24 33.03a3.994 3.994 0 00.39 5.316l.009.008-.672.65L0 47.636l8.905-2.877 1.785-1.731c.332 1.006 1.295 1.691 2.386 1.695h12.036a4.236 4.236 0 002.967-1.192l1.391-1.346a2.571 2.571 0 011.78-.716h5.323v3.254H50V20.319H36.573zM14.699 36.84c-1.852.56-3.303 1.965-3.88 3.76L8.45 42.9 7.26 41.747l30.347-29.416 1.185 1.148-24.094 23.362zm5.93-3.448v2.381c0 .45-.377.814-.84.814h-2.456l3.295-3.195zm19.947-28.54a2.573 2.573 0 012.44-.647 2.48 2.48 0 011.788 1.734 2.389 2.389 0 01-.669 2.365l-1.78 1.726-3.56-3.451 1.78-1.726zm.593 6.328l-1.186 1.15-3.56-3.451 1.185-1.15 3.561 3.451zm-4.747 0L6.074 40.597l-1.188-1.152 30.352-29.412 1.184 1.148zM4.818 37.195a2.398 2.398 0 01-.234-3.19l6.31-8.154c1.112-1.43 2.851-2.273 4.7-2.278h3.298L4.826 37.203l-.008-.009zm-.75 3.758l2.826 2.74-4.24 1.37 1.414-4.11zM31.25 39.84a4.238 4.238 0 00-2.967 1.192l-1.391 1.347a2.573 2.573 0 01-1.78.715H13.076a.827.827 0 01-.84-.813c.003-2.245 1.88-4.065 4.196-4.067h3.357c1.39 0 2.518-1.093 2.518-2.44v-4.01l8.324-8.072 1.273.823c.69.447 1.5.685 2.328.684h2.34V39.84H31.25zm17.072 3.254h-10.07V21.946h10.07v21.149z"/><path d="M43.287 41.469c1.39 0 2.517-1.093 2.517-2.44 0-1.348-1.127-2.44-2.517-2.44s-2.518 1.092-2.518 2.44c0 1.347 1.127 2.44 2.518 2.44zm0-3.254c.463 0 .839.364.839.813 0 .45-.376.814-.84.814a.827.827 0 01-.839-.813c0-.45.376-.814.84-.814z"/></g><defs><clipPath id="clip0"><path fill="#fff" d="M0 .82h50v48.465H0z"/></clipPath></defs></svg>