<svg width="177" height="174" viewBox="0 0 177 174" fill="none" xmlns="http://www.w3.org/2000/svg">
<g clip-path="url(#clip0)">
<path d="M156.265 107.183C167.669 107.183 176.915 98.1476 176.915 87C176.915 75.8524 167.669 66.8167 156.265 66.8167H31.4789L0.503906 87L31.4789 107.183H156.265ZM153.315 72.5833H156.265C164.41 72.5833 171.015 79.0385 171.015 87C171.015 94.9616 164.41 101.417 156.265 101.417H153.315V72.5833ZM141.515 72.5833H147.415V101.417H141.515V72.5833ZM39.4848 101.417L45.3848 95.65H135.615V101.417H39.4848ZM45.0492 84.1167H135.615V89.8833H45.0492L40.6242 87L45.0492 84.1167ZM135.615 78.35H45.3848L39.4848 72.5833H135.615V78.35ZM31.9903 73.4112L39.5352 80.787L30.0039 87L39.5439 93.213L31.9989 100.589L11.1242 87L31.9903 73.4112Z" fill="#4054B2"/>
<path d="M86.5324 14.9547C53.7078 15.7938 25.3948 37.7215 17.0532 68.7624L22.7616 70.204C24.8733 62.3664 28.4585 54.9807 33.3315 48.4242C37.2855 51.185 41.5132 53.5517 45.9526 55.4847C45.1373 58.0808 44.3796 60.7389 43.7545 63.5349L49.5162 64.7668C50.0679 62.3129 50.7247 59.9688 51.4305 57.6908C63.2867 61.8821 75.8069 63.9939 88.415 63.9333C101.022 63.9995 113.543 61.8905 125.401 57.7049C126.101 59.9688 126.752 62.296 127.301 64.726L133.063 63.4927C132.44 60.722 131.688 58.0681 130.877 55.5002C135.323 53.5615 139.557 51.1906 143.517 48.4242C147.301 53.5404 150.315 59.1621 152.465 65.116L158.037 63.2125C147.87 34.8747 120.812 15.6516 90.096 14.9448L86.5324 14.9547ZM85.465 20.8565V58.0653C74.4932 57.864 63.6295 55.9028 53.3088 52.2592C60.3281 34.1229 72.455 22.3123 85.465 20.8565ZM91.365 20.8565C104.466 22.3967 116.531 34.1835 123.52 52.2437C113.199 55.893 102.337 57.8598 91.365 58.0653V20.8565ZM64.3901 24.9478C56.992 31.9576 51.3398 40.5358 47.8698 50.0179C44.031 48.3073 40.3666 46.242 36.9283 43.8514C44.3105 35.3971 53.7554 28.9011 64.3901 24.9619V24.9478ZM139.909 43.8514C136.471 46.2405 132.808 48.3059 128.967 50.0179C125.495 40.5232 119.826 31.9379 112.404 24.9337C123.059 28.8772 132.52 35.39 139.909 43.8655V43.8514Z" fill="#4054B2"/>
<path d="M90.2962 159.045C120.937 158.257 147.893 139.048 158.034 110.776L152.462 108.873C150.312 114.831 147.295 120.457 143.509 125.576C139.549 122.808 135.312 120.437 130.864 118.5C131.68 115.926 132.432 113.272 133.054 110.502L127.292 109.266C126.743 111.698 126.092 114.028 125.389 116.295C113.535 112.11 101.019 110.002 88.415 110.067C75.8069 110.001 63.2881 112.11 51.4305 116.295C50.7218 114.009 50.065 111.658 49.5133 109.208L43.7516 110.438C44.3767 113.227 45.1344 115.916 45.9554 118.513C41.516 120.446 37.2869 122.811 33.3315 125.573C28.4182 118.96 24.8157 111.504 22.7127 103.593L16.9956 105.035C25.2838 136.246 53.751 158.296 86.7326 159.055L90.2962 159.045ZM91.365 153.144V115.949C102.335 116.15 113.199 118.113 123.52 121.756C116.502 139.877 104.374 151.688 91.365 153.144ZM85.465 153.144C72.36 151.603 60.2978 139.817 53.3088 121.756C63.6295 118.107 74.4918 116.14 85.465 115.935V153.144ZM112.44 149.052C119.837 142.042 125.489 133.464 128.959 123.982C132.798 125.694 136.462 127.759 139.9 130.149C132.518 138.603 123.073 145.099 112.44 149.038V149.052ZM36.9196 130.149C40.3579 127.759 44.0224 125.694 47.8611 123.982C51.334 133.477 57.0035 142.062 64.4246 149.066C53.7712 145.121 44.309 138.61 36.9196 130.135V130.149Z" fill="#4054B2"/>
<path d="M167.931 108.931L173.614 110.488C173.887 109.526 174.145 108.566 174.39 107.604L168.654 106.237C168.431 107.14 168.189 108.048 167.931 108.931Z" fill="#4054B2"/>
<path d="M135.422 153.394L138.785 158.132C140.455 156.998 142.101 155.799 143.68 154.565L139.992 150.064C138.517 151.215 136.98 152.337 135.422 153.394Z" fill="#4054B2"/>
<path d="M115.132 163.408L117.029 168.886C118.944 168.247 120.865 167.532 122.738 166.762L120.449 161.447C118.712 162.154 116.917 162.831 115.132 163.408Z" fill="#4054B2"/>
<path d="M164.088 119.415L169.492 121.721C170.309 119.908 171.071 118.039 171.752 116.171L166.197 114.227C165.557 115.98 164.848 117.721 164.088 119.415Z" fill="#4054B2"/>
<path d="M104.123 166.275L105.241 171.937C107.236 171.563 109.241 171.112 111.197 170.605L109.682 165.032C107.858 165.507 105.988 165.926 104.123 166.275Z" fill="#4054B2"/>
<path d="M125.631 159.083L128.286 164.233C130.087 163.342 131.889 162.376 133.637 161.35L130.628 156.411C128.995 157.353 127.317 158.261 125.631 159.083Z" fill="#4054B2"/>
<path d="M144.32 146.434L148.314 150.676C149.808 149.335 151.264 147.925 152.663 146.486L148.382 142.518C147.081 143.863 145.713 145.181 144.32 146.434Z" fill="#4054B2"/>
<path d="M158.796 129.284L163.81 132.306C164.873 130.619 165.89 128.875 166.832 127.116L161.603 124.437C160.736 126.081 159.787 127.71 158.796 129.284Z" fill="#4054B2"/>
<path d="M152.161 138.344L156.713 142.014C158.011 140.474 159.264 138.883 160.435 137.28L155.635 133.926C154.542 135.42 153.374 136.908 152.161 138.344Z" fill="#4054B2"/>
<path d="M46.0459 162.959C47.8162 163.912 49.6657 164.815 51.5094 165.64L53.9697 160.401C52.2527 159.628 50.5357 158.786 48.8749 157.898L46.0459 162.959Z" fill="#4054B2"/>
<path d="M68.8496 171.378C70.823 171.813 72.8439 172.185 74.8504 172.488L75.7349 166.79C73.8594 166.503 71.9768 166.159 70.1301 165.752L68.8496 171.378Z" fill="#4054B2"/>
<path d="M35.7544 156.528C37.3936 157.713 39.0847 158.852 40.7844 159.917L43.9663 155.047C42.3804 154.054 40.7988 152.991 39.2705 151.875L35.7544 156.528Z" fill="#4054B2"/>
<path d="M26.4653 148.775C27.9158 150.166 29.4326 151.52 30.9696 152.813L34.804 148.427C33.3679 147.228 31.9519 145.962 30.5979 144.678L26.4653 148.775Z" fill="#4054B2"/>
<path d="M80.9189 173.211C82.9355 173.376 84.9867 173.475 87.0134 173.5L87.107 167.733C85.21 167.705 83.2957 167.612 81.4087 167.445L80.9189 173.211Z" fill="#4054B2"/>
<path d="M92.8125 167.621L93.1251 173.387C95.146 173.286 97.1972 173.099 99.208 172.872L98.495 167.148C96.6152 167.364 94.7067 167.526 92.8125 167.621Z" fill="#4054B2"/>
<path d="M57.1445 167.947C59.0445 168.647 60.979 169.29 62.9379 169.861L64.6319 164.336C62.8198 163.807 61.0034 163.204 59.2303 162.552L57.1445 167.947Z" fill="#4054B2"/>
<path d="M16.692 127.078L11.5698 129.944C12.5796 131.675 13.6584 133.37 14.7892 135.018L19.6794 131.81C18.6409 130.27 17.6326 128.679 16.692 127.078Z" fill="#4054B2"/>
<path d="M8.23059 106.463L2.50488 107.849C2.99463 109.784 3.55784 111.72 4.17722 113.591L9.78193 111.819C9.21296 110.067 8.69009 108.27 8.23059 106.463Z" fill="#4054B2"/>
<path d="M23.0282 136.333L18.3555 139.857C19.5971 141.426 20.9065 142.974 22.2547 144.453L26.6624 140.63C25.4078 139.241 24.1849 137.799 23.0282 136.333Z" fill="#4054B2"/>
<path d="M11.7148 117.05L6.23975 119.204C7.00605 121.066 7.83862 122.904 8.70864 124.662L14.0181 122.145C13.2186 120.507 12.4422 118.791 11.7148 117.05Z" fill="#4054B2"/>
<path d="M6.59578 98.1532L0.751953 98.943C0.890234 99.9286 1.04724 100.913 1.21865 101.887L7.03223 100.903C6.8709 99.9919 6.7283 99.0754 6.59578 98.1532Z" fill="#4054B2"/>
<path d="M6.57834 75.9763L0.72876 75.1992C0.593359 76.1791 0.475244 77.1646 0.368652 78.1571L6.24272 78.7329C6.33635 77.8122 6.44871 76.8943 6.57834 75.9763Z" fill="#4054B2"/>
<path d="M107.835 2.5907C105.852 2.15848 103.838 1.7854 101.84 1.48833L100.956 7.18883C102.817 7.47745 104.702 7.81252 106.56 8.21799L107.835 2.5907Z" fill="#4054B2"/>
<path d="M119.534 6.00199C117.648 5.3065 115.7 4.66592 113.746 4.09573L112.058 9.62305C113.885 10.1566 115.7 10.7536 117.454 11.3984L119.534 6.00199Z" fill="#4054B2"/>
<path d="M160.034 46.7544L165.146 43.8711C164.13 42.1408 163.046 40.4485 161.92 38.814L157.022 42.0197C158.073 43.5571 159.088 45.148 160.034 46.7544Z" fill="#4054B2"/>
<path d="M165.023 56.7503L170.49 54.5878C169.732 52.7604 168.896 50.9259 168.009 49.1422L162.698 51.6679C163.537 53.3348 164.316 55.044 165.023 56.7503Z" fill="#4054B2"/>
<path d="M153.684 37.5131L158.344 33.9807C157.099 32.4124 155.787 30.8735 154.436 29.3939L150.04 33.2374C151.297 34.6157 152.521 36.0545 153.684 37.5131Z" fill="#4054B2"/>
<path d="M150.219 25.0886C148.775 23.7074 147.255 22.3587 145.712 21.0719L141.878 25.4645C143.323 26.6668 144.741 27.9297 146.093 29.2122L150.219 25.0886Z" fill="#4054B2"/>
<path d="M140.925 17.365C139.3 16.1908 137.606 15.0574 135.892 13.9889L132.727 18.8531C134.323 19.847 135.903 20.9086 137.417 22.0039L140.925 17.365Z" fill="#4054B2"/>
<path d="M130.635 10.9577C128.865 10.0116 127.013 9.1148 125.169 8.29119L122.72 13.5355C124.437 14.3056 126.151 15.1419 127.809 16.0233L130.635 10.9577Z" fill="#4054B2"/>
<path d="M95.7742 0.788615C93.7604 0.626709 91.7093 0.532381 89.6826 0.5L89.5947 6.26667C91.4889 6.29201 93.4032 6.38211 95.2844 6.53135L95.7742 0.788615Z" fill="#4054B2"/>
<path d="M32.4705 27.603L28.4791 23.3555C27.0041 24.6944 25.5291 26.1036 24.1318 27.5453L28.4171 31.5071C29.7092 30.164 31.0819 28.849 32.4705 27.603Z" fill="#4054B2"/>
<path d="M24.6474 35.6772L20.0956 32.0153C18.8093 33.5372 17.559 35.1282 16.375 36.743L21.176 40.0994C22.2779 38.5915 23.4504 37.1189 24.6474 35.6772Z" fill="#4054B2"/>
<path d="M18.0184 44.7383L12.9942 41.7311C11.9326 43.4149 10.9301 45.1593 9.97363 46.922L15.201 49.5997C16.0782 47.9427 17.0245 46.3137 18.0184 44.7383Z" fill="#4054B2"/>
<path d="M8.89482 65.0864L3.21233 63.5236C2.66929 65.4186 2.18386 67.3671 1.76758 69.3199L7.54082 70.4954C7.92974 68.668 8.38347 66.849 8.89482 65.0864Z" fill="#4054B2"/>
<path d="M12.732 54.5977L7.32749 52.2902C6.50789 54.119 5.75022 55.9845 5.07178 57.8386L10.6261 59.7815C11.2599 58.0456 11.9686 56.304 12.732 54.5977Z" fill="#4054B2"/>
<path d="M51.1325 14.9364L48.4778 9.79621C46.6657 10.693 44.8695 11.6616 43.1323 12.6795L46.1587 17.6296C47.7662 16.6807 49.4457 15.7811 51.1325 14.9364Z" fill="#4054B2"/>
<path d="M72.6019 7.74634L71.4841 2.08245C69.5107 2.45554 67.5071 2.90465 65.5337 3.41853L67.0562 8.99091C68.8971 8.50941 70.761 8.09127 72.6019 7.74634Z" fill="#4054B2"/>
<path d="M61.6069 10.6114L59.6954 5.15725C57.7897 5.79361 55.861 6.50881 53.9971 7.28455L56.2946 12.6106C58.0432 11.8742 59.8351 11.2055 61.6069 10.6114Z" fill="#4054B2"/>
<path d="M41.3562 20.6397L37.9957 15.9022C36.3377 17.0243 34.6913 18.2266 33.1025 19.4697L36.79 23.9707C38.265 22.8078 39.8077 21.69 41.3562 20.6397Z" fill="#4054B2"/>
<path d="M83.9034 6.39054L83.585 0.623871C81.5584 0.733685 79.5115 0.912486 77.5107 1.14901L78.231 6.87203C80.1006 6.6524 82.0063 6.48909 83.9034 6.39054Z" fill="#4054B2"/>
<path d="M167.831 64.7316L173.507 63.1491C173.224 62.1876 172.929 61.233 172.622 60.2855L167.018 62.0792C167.303 62.9563 167.574 63.8404 167.831 64.7316Z" fill="#4054B2"/>
</g>
<defs>
<clipPath id="clip0">
<rect y="0.5" width="177" height="173" fill="white"/>
</clipPath>
</defs>
</svg>
