<svg width="50" height="50" fill="none" xmlns="http://www.w3.org/2000/svg"><circle cx="25" cy="25" r="24.5" fill="#4054B2" stroke="#fff"/><path d="M40.334 21.608c-1.226-.22-2.42.501-2.719 1.64l-1.304 4.573a2.507 2.507 0 00-2.677.088c-.057.043-5.186 3.105-5.186 3.105-1.845 1.085-2.964 2.989-2.958 5.036v4.586c0 .298.258.54.575.54.318 0 .576-.242.576-.54V36.05c-.005-1.675.91-3.233 2.42-4.12 0 0 5.203-3.107 5.222-3.123a1.236 1.236 0 011.572.049c.437.41.45 1.073.03 1.499l-3.823 2.527a.521.521 0 00-.14.754.599.599 0 00.8.132l3.869-2.557a.58.58 0 00.076-.06c.627-.595.834-1.477.53-2.265l1.528-5.358c.148-.578.743-.953 1.368-.862.53.107.91.546.913 1.055 0 .095-.012.19-.038.282l-2.07 7.277a1.61 1.61 0 01-.447.729l-4.305 4.048a3.653 3.653 0 00-1.179 2.677v1.901c0 .3.258.541.575.541.318 0 .575-.242.575-.54v-1.902a2.611 2.611 0 01.843-1.912l4.305-4.049c.356-.336.613-.754.744-1.212l2.07-7.277c.053-.183.079-.373.078-.563-.006-1.02-.764-1.898-1.823-2.113zM21.378 31.014s-5.385-3.03-5.424-3.058c-.837-.586-2-.64-2.9-.135l-1.382-4.573c-.315-1.139-1.58-1.86-2.877-1.64-.654.124-1.221.48-1.571.985a1.961 1.961 0 00-.279 1.69l2.192 7.278c.138.459.41.877.788 1.213l4.557 4.048c.574.506.896 1.194.894 1.912v1.901c0 .3.273.541.61.541.335 0 .608-.242.608-.54v-1.902c.003-1.005-.447-1.969-1.249-2.677l-4.557-4.048a1.596 1.596 0 01-.473-.729l-2.193-7.279a.955.955 0 01-.04-.28c.005-.51.407-.948.968-1.054.662-.095 1.294.282 1.448.862l1.619 5.358c-.323.787-.104 1.67.56 2.264a.624.624 0 00.08.06l4.096 2.555c.275.172.655.113.848-.132.194-.244.128-.581-.148-.754l-4.049-2.527a.997.997 0 01.033-1.5 1.372 1.372 0 011.632-.072c.031.023 5.562 3.147 5.562 3.147 1.599.888 2.568 2.447 2.561 4.122v4.586c0 .298.273.54.61.54.336 0 .608-.242.608-.54V36.05c.007-2.047-1.177-3.951-3.132-5.036z" fill="#fff"/><path d="M34.19 26.252a.532.532 0 00.323-.477v-8.928l5.302-1.816a.54.54 0 00.38-.501.54.54 0 00-.38-.501l-15.098-5.17a.642.642 0 00-.415 0l-15.097 5.17a.54.54 0 00-.382.501.54.54 0 00.382.501l2.967 1.018a.436.436 0 00-.02.087v5.355c0 .296.264.535.589.535.325 0 .588-.24.588-.535v-5.047l1.177.403v8.928c0 .201.125.386.323.477l.47.214c5.806 2.62 12.623 2.62 18.429 0l.462-.214zm-9.68-16.32l13.426 4.598-13.427 4.6-13.426-4.6 13.426-4.599zm8.687 15.58c-5.473 2.469-11.899 2.469-17.372 0l-.142-.066V17.25l8.619 2.952a.645.645 0 00.415 0l8.619-2.952v8.196l-.139.067z" fill="#fff"/></svg>