<svg width="80" height="85" fill="none" xmlns="http://www.w3.org/2000/svg"><g clip-path="url(#clip0)"><path fill="#fff" d="M0 .563h80V84.99H0z"/><path d="M25.333 54.034h-16C4.181 54.04.006 58.446 0 63.884V84.99h34.667V63.884c-.006-5.438-4.181-9.844-9.334-9.85zm-5.159 2.814l-2.84 4.503-2.842-4.503h5.682zM32 82.176h-5.333V66.698H24v15.478H10.667V66.698H8v15.478H2.667V63.883c.004-3.884 2.986-7.03 6.666-7.035h1.954l6.046 9.568 6.047-9.568h1.953c3.68.005 6.662 3.151 6.667 7.035v18.293zM8 38.555v4.222c0 5.44 4.178 9.85 9.333 9.85s9.334-4.41 9.334-9.85V28.705c0-2.33-1.791-4.22-4-4.22H0v5.628c.005 4.66 3.583 8.438 8 8.442zm16 4.222c0 3.885-2.985 7.035-6.667 7.035-3.681 0-6.666-3.15-6.666-7.035v-4.222H24v4.222zM2.667 27.298h20c.736 0 1.333.63 1.333 1.408v7.035H8c-2.945 0-5.333-2.52-5.333-5.628v-2.815z" fill="#4054B2"/><path d="M77.333 42.777V4.784c0-2.33-1.79-4.22-4-4.22H22.667c-2.21 0-4 1.89-4 4.22V21.67h2.666V4.784c0-.777.597-1.407 1.334-1.407h50.666c.737 0 1.334.63 1.334 1.407v37.993H29.332v2.814h48v2.814H26.667v2.814H80v-8.442h-2.667zM52.733 73.812c1.733-1.513 2.38-4.01 1.619-6.243-.763-2.233-2.77-3.722-5.019-3.722-2.248 0-4.255 1.489-5.018 3.722-.762 2.233-.114 4.73 1.619 6.243-3.368.386-5.924 3.382-5.934 6.957v4.221h18.667V80.77c-.01-3.575-2.566-6.57-5.934-6.957zm-3.4-7.114c1.473 0 2.667 1.26 2.667 2.814s-1.194 2.814-2.667 2.814c-1.472 0-2.666-1.26-2.666-2.814s1.194-2.814 2.666-2.814zM56 82.176H42.667V80.77c0-2.331 1.79-4.221 4-4.221H52c2.209 0 4 1.89 4 4.22v1.408zM74.067 73.812c1.733-1.513 2.38-4.01 1.618-6.243-.762-2.233-2.77-3.722-5.018-3.722-2.249 0-4.256 1.489-5.018 3.722-.762 2.233-.115 4.73 1.618 6.243-3.368.386-5.923 3.382-5.933 6.957v4.221H80V80.77c-.01-3.575-2.566-6.57-5.933-6.957zm-3.4-7.114c1.472 0 2.666 1.26 2.666 2.814s-1.194 2.814-2.666 2.814c-1.473 0-2.667-1.26-2.667-2.814s1.194-2.814 2.667-2.814zm6.666 15.478H64V80.77c0-2.331 1.791-4.221 4-4.221h5.334c2.209 0 4 1.89 4 4.22v1.408z" fill="#4054B2"/><path d="M34.981 13.227l-4.266 16.515 2.573.741 1.548-5.999h4.995l1.55 5.999 2.572-.74-4.267-16.516H34.98zm.583 8.443l1.455-5.629h.629l1.455 5.629h-3.54zM52.667 13.227h-6v16.886h6c1.897.002 3.607-1.21 4.323-3.064.714-1.855.292-3.982-1.068-5.38 1.36-1.396 1.782-3.523 1.068-5.378-.716-1.855-2.426-3.067-4.323-3.064zm0 14.071h-3.334v-4.221h3.334c1.105 0 2 .945 2 2.11 0 1.167-.895 2.111-2 2.111zm0-7.035h-3.334V16.04h3.334c1.105 0 2 .945 2 2.111 0 1.166-.895 2.11-2 2.11zM66.667 16.041h2.666v-2.814h-2.666c-3.68.005-6.662 3.152-6.667 7.036v2.814c.005 3.884 2.986 7.03 6.667 7.036h2.666v-2.815h-2.666c-2.21 0-4-1.89-4-4.22v-2.815c0-2.331 1.79-4.222 4-4.222zM36 35.741h2.667v2.814H36v-2.814zM42.667 35.741h2.666v2.814h-2.666v-2.814zM49.333 35.741H52v2.814h-2.667v-2.814zM56 35.741h2.667v2.814H56v-2.814zM62.667 35.741h2.666v2.814h-2.666v-2.814z" fill="#4054B2"/></g><defs><clipPath id="clip0"><path fill="#fff" d="M0 .563h80V84.99H0z"/></clipPath></defs></svg>