<svg width="45" height="45" viewBox="0 0 45 45" fill="none" xmlns="http://www.w3.org/2000/svg">
<path d="M14.25 28.5H5.24999C2.3518 28.5033 0.00329589 30.8518 0 33.75V45H19.5V33.75C19.4967 30.8518 17.1482 28.5033 14.25 28.5ZM11.3481 30L9.74999 32.4001L8.15184 30H11.3481ZM18 43.5H15V35.25H13.5V43.5H5.99999V35.25H4.49999V43.5H1.5V33.75C1.50256 31.6798 3.17981 30.0026 5.24999 30H6.34862L9.74999 35.0999L13.1513 30H14.25C16.3202 30.0026 17.9974 31.6798 18 33.75V43.5Z" fill="#4054B2"/>
<path d="M4.49999 20.25V22.5C4.49999 25.3997 6.85033 27.75 9.74999 27.75C12.6496 27.75 15 25.3997 15 22.5V15C15 13.7574 13.9925 12.75 12.75 12.75H0V15.75C0.00256348 18.2344 2.01562 20.2474 4.49999 20.25ZM13.5 22.5C13.5 24.5709 11.8209 26.25 9.74999 26.25C7.67907 26.25 5.99999 24.5709 5.99999 22.5V20.25H13.5V22.5ZM1.5 14.25H12.75C13.1642 14.25 13.5 14.5858 13.5 15V18.75H4.49999C2.84326 18.75 1.5 17.4067 1.5 15.75V14.25Z" fill="#4054B2"/>
<path d="M43.5 22.5V2.25C43.5 1.00745 42.4925 0 41.25 0H12.75C11.5074 0 10.5 1.00745 10.5 2.25V11.25H12V2.25C12 1.83582 12.3358 1.5 12.75 1.5H41.25C41.6641 1.5 42 1.83582 42 2.25V22.5H16.5V24H43.5V25.5H15V27H44.9999V22.5H43.5Z" fill="#4054B2"/>
<path d="M29.6623 39.0421C30.6372 38.2357 31.0012 36.9045 30.5727 35.7144C30.1439 34.5242 29.0149 33.7306 27.75 33.7306C26.4851 33.7306 25.3561 34.5242 24.9272 35.7144C24.4988 36.9045 24.8628 38.2357 25.8376 39.0421C23.9432 39.2479 22.5059 40.8446 22.5 42.75V45H33V42.75C32.9941 40.8446 31.5568 39.2479 29.6623 39.0421ZM27.75 35.25C28.5784 35.25 29.25 35.9216 29.25 36.75C29.25 37.5784 28.5784 38.25 27.75 38.25C26.9216 38.25 26.25 37.5784 26.25 36.75C26.25 35.9216 26.9216 35.25 27.75 35.25ZM31.5 43.5H24V42.75C24 41.5074 25.0074 40.5 26.25 40.5H29.25C30.4925 40.5 31.5 41.5074 31.5 42.75V43.5Z" fill="#4054B2"/>
<path d="M41.6623 39.0421C42.6372 38.2357 43.0012 36.9045 42.5727 35.7144C42.1439 34.5242 41.0149 33.7306 39.75 33.7306C38.4851 33.7306 37.3561 34.5242 36.9272 35.7144C36.4988 36.9045 36.8628 38.2357 37.8376 39.0421C35.9432 39.2479 34.5059 40.8446 34.5 42.75V45H45V42.75C44.9941 40.8446 43.5568 39.2479 41.6623 39.0421ZM39.75 35.25C40.5784 35.25 41.25 35.9216 41.25 36.75C41.25 37.5784 40.5784 38.25 39.75 38.25C38.9216 38.25 38.25 37.5784 38.25 36.75C38.25 35.9216 38.9216 35.25 39.75 35.25ZM43.5 43.5H36V42.75C36 41.5074 37.0074 40.5 38.25 40.5H41.25C42.4925 40.5 43.5 41.5074 43.5 42.75V43.5Z" fill="#4054B2"/>
<path d="M19.6771 6.75L17.2773 15.5526L18.7246 15.9474L19.5955 12.75H22.405L23.2766 15.9474L24.7239 15.5526L22.3234 6.75H19.6771ZM20.0049 11.25L20.8234 8.25H21.1771L21.9956 11.25H20.0049Z" fill="#4054B2"/>
<path d="M29.625 6.75H26.25V15.75H29.625C30.6925 15.7515 31.6542 15.1055 32.0566 14.1171C32.4587 13.1283 32.2214 11.9945 31.4564 11.25C32.2214 10.5055 32.4587 9.37171 32.0566 8.38294C31.6542 7.39453 30.6925 6.74854 29.625 6.75ZM29.625 14.25H27.75V12H29.625C30.2465 12 30.75 12.5035 30.75 13.125C30.75 13.7465 30.2465 14.25 29.625 14.25ZM29.625 10.5H27.75V8.25H29.625C30.2465 8.25 30.75 8.75354 30.75 9.375C30.75 9.99646 30.2465 10.5 29.625 10.5Z" fill="#4054B2"/>
<path d="M37.5 8.25H39V6.75H37.5C35.4298 6.75256 33.7526 8.42981 33.75 10.5V12C33.7526 14.0702 35.4298 15.7474 37.5 15.75H39V14.25H37.5C36.2574 14.25 35.25 13.2426 35.25 12V10.5C35.25 9.25745 36.2574 8.25 37.5 8.25Z" fill="#4054B2"/>
<path d="M20.25 18.75H21.75V20.25H20.25V18.75Z" fill="#4054B2"/>
<path d="M24 18.75H25.5V20.25H24V18.75Z" fill="#4054B2"/>
<path d="M27.75 18.75H29.25V20.25H27.75V18.75Z" fill="#4054B2"/>
<path d="M31.5 18.75H33V20.25H31.5V18.75Z" fill="#4054B2"/>
<path d="M35.25 18.75H36.75V20.25H35.25V18.75Z" fill="#4054B2"/>
</svg>
