<svg width="45" height="45" viewBox="0 0 45 45" fill="none" xmlns="http://www.w3.org/2000/svg">
<path d="M42.6207 17.7115C41.0215 17.4062 39.4636 18.4109 39.0737 19.9991L37.3714 26.3761C36.2925 25.6929 34.9077 25.7419 33.8786 26.4991C33.8035 26.5581 27.111 30.8283 27.111 30.8283C24.703 32.341 23.2433 34.9965 23.251 37.8506V44.2457C23.251 44.6622 23.5871 45 24.0015 45C24.416 45 24.7521 44.6622 24.7521 44.2457V37.8506C24.7458 35.5159 25.9398 33.3432 27.9096 32.1053C27.9096 32.1053 34.7002 27.7724 34.7252 27.7514C35.3262 27.2457 36.2094 27.2748 36.7763 27.8184C37.3461 28.3915 37.3637 29.3149 36.8162 29.9094L31.826 33.4341C31.4867 33.6739 31.4049 34.1446 31.6431 34.4853C31.8814 34.8264 32.3497 34.9085 32.6891 34.6691L37.7364 31.1027C37.7716 31.0777 37.805 31.0497 37.8354 31.0191C38.6548 30.1896 38.9242 28.9598 38.5265 27.8615L40.5216 20.3899C40.7144 19.5836 41.4905 19.0606 42.3063 19.1877C42.9975 19.3365 43.4929 19.9479 43.4981 20.6584C43.4992 20.7914 43.4827 20.9232 43.4486 21.0514L40.7466 31.1999C40.644 31.5841 40.4428 31.934 40.1636 32.2154L34.5467 37.8605C33.5583 38.8487 33.0042 40.1931 33.0079 41.5945V44.2457C33.0079 44.6622 33.3439 45 33.7584 45C34.1729 45 34.5089 44.6622 34.5089 44.2457V41.5945C34.5067 40.5934 34.9025 39.6332 35.6087 38.9272L41.2256 33.282C41.6914 32.8135 42.0263 32.2305 42.1967 31.5907L44.8987 21.4436C44.9669 21.1877 45.0009 20.9236 44.9998 20.6584C44.9925 19.2371 44.0034 18.0113 42.6207 17.7115Z" fill="#4054B2"/>
<path d="M17.8903 30.8283C17.8903 30.8283 11.252 26.6041 11.204 26.5632C10.1724 25.7463 8.74026 25.6715 7.62985 26.3761L5.92687 19.9991C5.53841 18.4102 3.98019 17.4047 2.38055 17.7115C1.57542 17.8839 0.875461 18.3804 0.444493 19.0853C0.0138916 19.7907 -0.110708 20.6426 0.100745 21.4422L2.80236 31.5907C2.97276 32.2305 3.30772 32.8135 3.77387 33.282L9.39074 38.9272C10.0977 39.6329 10.4942 40.5931 10.4923 41.5945V44.2457C10.4923 44.6622 10.8284 45 11.2429 45C11.6574 45 11.9934 44.6622 11.9934 44.2457V41.5945C11.9971 40.1931 11.443 38.8488 10.4542 37.8606L4.83736 32.2154C4.55774 31.934 4.35655 31.5841 4.25394 31.2L1.55196 21.0492C1.51861 20.9218 1.50212 20.7903 1.50322 20.6584C1.50799 19.9479 2.00382 19.3362 2.69535 19.1877C3.51147 19.0562 4.29022 19.5811 4.47932 20.3899L6.47474 27.8615C6.07749 28.9599 6.34685 30.1897 7.1659 31.0191C7.19669 31.0497 7.22967 31.0777 7.26522 31.1027L12.3126 34.6662C12.6516 34.9056 13.1199 34.8234 13.3581 34.4824C13.5967 34.1413 13.515 33.671 13.1756 33.4312L8.18542 29.9064C7.63792 29.3116 7.65514 28.3886 8.225 27.8155C8.77837 27.2855 9.63444 27.2428 10.2373 27.715C10.2754 27.7459 17.0917 32.1023 17.0917 32.1023C19.0626 33.3406 20.2569 35.5148 20.2492 37.8506V44.2457C20.2492 44.6622 20.5853 45 20.9998 45C21.4142 45 21.7503 44.6622 21.7503 44.2457V37.8506C21.7583 34.9965 20.2987 32.341 17.8903 30.8283Z" fill="#4054B2"/>
<path d="M34.8484 24.5522C35.1005 24.4237 35.2595 24.1637 35.2595 23.8793V11.3029L42.022 8.7449C42.3144 8.63441 42.5083 8.35302 42.5083 8.03884C42.5083 7.72467 42.3144 7.44365 42.022 7.33278L22.7655 0.0486176C22.5947 -0.0162059 22.4064 -0.0162059 22.2356 0.0486176L2.97947 7.33278C2.68666 7.44365 2.49316 7.72467 2.49316 8.03884C2.49316 8.35302 2.68666 8.63441 2.97947 8.7449L6.7651 10.1784C6.75264 10.2185 6.74421 10.2602 6.73944 10.3018V17.8449C6.73944 18.2614 7.07549 18.5992 7.48997 18.5992C7.90445 18.5992 8.2405 18.2614 8.2405 17.8449V10.7349L9.74156 11.3029V23.8793C9.74156 24.1637 9.90061 24.4237 10.1531 24.5522L10.7534 24.8539C18.1583 28.5448 26.8535 28.5448 34.2583 24.8539L34.8484 24.5522ZM22.5005 1.56018L39.626 8.03884L22.5005 14.5179L5.37508 8.03884L22.5005 1.56018ZM33.5815 23.5107C26.601 26.9875 18.4049 26.9875 11.4244 23.5107L11.2426 23.4164V11.8708L22.2356 16.0294C22.4064 16.0939 22.5947 16.0939 22.7655 16.0294L33.7585 11.8708V23.4164L33.5815 23.5107Z" fill="#4054B2"/>
</svg>
