<svg width="45" height="45" viewBox="0 0 45 45" fill="none" xmlns="http://www.w3.org/2000/svg">
<g clip-path="url(#clip0)">
<rect width="45" height="45" fill="white"/>
<path d="M42.6924 36.0122H40.3075C40.3916 35.777 40.4454 30.7692 40.4454 30.7692C40.4454 29.5284 39.4393 28.5223 38.1984 28.5223H5.24292C4.00204 28.5223 2.99596 29.5284 2.99596 30.7692V35.2632C2.99852 35.5188 3.04496 35.7723 3.13383 36.0122H2.24697C1.00609 36.0122 0 37.0183 0 38.2591V42.7531C0 43.994 1.00609 45 2.24697 45H42.6924C43.9332 45 44.9393 43.994 44.9393 42.7531V38.2591C44.9393 37.0183 43.9332 36.0122 42.6924 36.0122ZM22.4697 39.0081V43.5021H21.7207V39.0081H20.2227V43.5021H12.7328V41.2551H11.2348V43.5021H8.98787V37.5102H29.9596V41.2551H31.4575V37.5102H35.9515V43.5021H23.9676V39.0081H22.4697ZM5.99191 37.5102H7.48989V43.5021H5.99191V37.5102ZM8.98787 36.0122V30.0203H10.4858V36.0122H8.98787ZM32.9555 36.0122V30.0203H34.4535V36.0122H32.9555ZM37.4494 37.5102H38.9474V43.5021H37.4494V37.5102ZM38.9474 30.7692V35.2632C38.9474 35.6768 38.6121 36.0122 38.1984 36.0122H35.9515V30.0203H38.1984C38.6121 30.0203 38.9474 30.3556 38.9474 30.7692ZM21.7207 30.0203V31.5182H23.2187V30.0203H28.4616V33.7652H29.9596V30.0203H31.4575V36.0122H17.2267V33.7652H15.7288V36.0122H11.9838V30.0203H21.7207ZM4.49393 35.2632V30.7692C4.49393 30.3556 4.8293 30.0203 5.24292 30.0203H7.48989V36.0122H5.24292C4.8293 36.0122 4.49393 35.6768 4.49393 35.2632ZM1.49798 42.7531V38.2591C1.49798 37.8455 1.83334 37.5102 2.24697 37.5102H4.49393V43.5021H2.24697C1.83334 43.5021 1.49798 43.1667 1.49798 42.7531ZM43.4413 42.7531C43.4413 43.1667 43.106 43.5021 42.6924 43.5021H40.4454V37.5102H42.6924C43.106 37.5102 43.4413 37.8455 43.4413 38.2591V42.7531Z" fill="#4054B2"/>
<path d="M1.49798 26.2753H3.74494V24.7773H1.49798V13.5425H7.48989V27.0243H8.98787V23.2794H12.7328V21.7814H8.98787V8.29958H16.4778V2.30767C16.4778 1.06679 15.4717 0.0606995 14.2308 0.0606995H9.73686C8.49598 0.0606995 7.48989 1.06679 7.48989 2.30767V3.19453C7.24998 3.10566 6.99654 3.05921 6.7409 3.05665H2.24697C1.00609 3.05665 0 4.06274 0 5.30362V34.5142H1.49798V26.2753ZM7.48989 12.0445H1.49798V10.5465H7.48989V12.0445ZM8.98787 6.8016V5.30362H14.9798V6.8016H8.98787ZM9.73686 1.55868H14.2308C14.6444 1.55868 14.9798 1.89404 14.9798 2.30767V3.80564H8.98787V2.30767C8.98787 1.89404 9.32323 1.55868 9.73686 1.55868ZM2.24697 4.55463H6.7409C7.15453 4.55463 7.48989 4.89 7.48989 5.30362V9.04857H1.49798V5.30362C1.49798 4.89 1.83334 4.55463 2.24697 4.55463Z" fill="#4054B2"/>
<path d="M9.99365 12.0445C9.99402 12.34 10.1681 12.6081 10.438 12.7284L15.7288 15.0876V24.0283C15.7288 24.3022 15.8784 24.5546 16.119 24.6859L16.1885 24.7232C22.8647 28.5201 31.0465 28.523 37.7252 24.7309L37.8083 24.6859C38.0489 24.5546 38.1985 24.3022 38.1985 24.0283V15.0876L41.1944 13.7513V23.0972L38.8868 25.4056L41.9434 30.6248L45.0001 25.4056L42.6924 23.0972V13.0842L43.4893 12.7284C43.7592 12.6077 43.9329 12.34 43.9329 12.0445C43.9329 11.749 43.7592 11.4813 43.4893 11.3606L27.2687 4.12781C27.0745 4.04114 26.8528 4.04114 26.6586 4.12781L10.438 11.3606C10.1681 11.4809 9.99402 11.749 9.99365 12.0445ZM41.9434 27.661L40.7636 25.647L41.9434 24.4672L43.1232 25.647L41.9434 27.661ZM36.7005 23.588C30.6325 26.9032 23.2948 26.9032 17.2268 23.588V15.7558L26.6586 19.9612C26.8528 20.0478 27.0745 20.0478 27.2687 19.9612L36.7005 15.7558V23.588ZM26.9636 5.63164L41.3444 12.0445L26.9636 18.4573L12.5829 12.0445L26.9636 5.63164Z" fill="#4054B2"/>
<path d="M14.98 26.2753H16.478V27.6453H14.98V26.2753Z" fill="url(#paint0_linear)"/>
</g>
<defs>
<linearGradient id="paint0_linear" x1="15.729" y1="48.2659" x2="15.729" y2="0.497766" gradientUnits="userSpaceOnUse">
<stop stop-color="#006DF0"/>
<stop offset="1" stop-color="#00E7F0"/>
</linearGradient>
<clipPath id="clip0">
<rect width="45" height="45" fill="white"/>
</clipPath>
</defs>
</svg>
