<svg width="45" height="45" viewBox="0 0 45 45" fill="none" xmlns="http://www.w3.org/2000/svg">
<path d="M41.25 4.48239C39.1798 4.48494 37.5022 6.15562 37.5 8.21771V37.5294L41.25 45L45 37.5294V8.21771C44.9974 6.15562 43.3198 4.48494 41.25 4.48239ZM40.5 34.8027L39.6335 33.9392L39 34.888V14.9413H40.5V34.8027ZM39.1154 37.4068L39.8654 36.2862L41.25 37.6625L42.6335 36.2847L43.3835 37.4053L41.25 41.6594L39.1154 37.4068ZM43.5 34.888L42.8661 33.9414L42 34.8027V14.9413H43.5V34.888ZM43.5 13.4472H39V11.953H43.5V13.4472ZM39 10.4589V8.21771C39 6.98002 40.0071 5.97652 41.25 5.97652C42.4926 5.97652 43.5 6.98002 43.5 8.21771V10.4589H39Z" fill="#4054B2"/>
<path d="M30 0H0V40.3414H4.5V44.8238H34.5V4.48238H30V0ZM1.5 38.8473V1.49413H28.5V4.48238H4.5V38.8473H1.5ZM33 43.3297H6V5.97651H33V43.3297Z" fill="#4054B2"/>
<path d="M15 8.96475H9V14.9413H15V8.96475ZM13.5 13.4471H10.5V10.4589H13.5V13.4471Z" fill="#4054B2"/>
<path d="M15 17.1825H9V23.159H15V17.1825ZM13.5 21.6648H10.5V18.6766H13.5V21.6648Z" fill="#4054B2"/>
<path d="M15 25.4001H9V31.3767H15V25.4001ZM13.5 29.8825H10.5V26.8943H13.5V29.8825Z" fill="#4054B2"/>
<path d="M15 34.3649H9V40.3414H15V34.3649ZM13.5 38.8473H10.5V35.859H13.5V38.8473Z" fill="#4054B2"/>
<path d="M18 9.71182H30V11.2059H18V9.71182Z" fill="#4054B2"/>
<path d="M18 12.7001H30V14.1942H18V12.7001Z" fill="#4054B2"/>
<path d="M18 17.9295H30V19.4237H18V17.9295Z" fill="#4054B2"/>
<path d="M18 20.9178H30V22.4119H18V20.9178Z" fill="#4054B2"/>
<path d="M18 26.1472H30V27.6413H18V26.1472Z" fill="#4054B2"/>
<path d="M18 29.1355H30V30.6296H18V29.1355Z" fill="#4054B2"/>
<path d="M18 35.112H30V36.6061H18V35.112Z" fill="#4054B2"/>
<path d="M18 38.1002H21V39.5944H18V38.1002Z" fill="#4054B2"/>
<path d="M25.5 38.1002H27V39.5944H25.5V38.1002Z" fill="#4054B2"/>
<path d="M22.5 38.1002H24V39.5944H22.5V38.1002Z" fill="#4054B2"/>
<path d="M28.5 38.1002H30V39.5944H28.5V38.1002Z" fill="#4054B2"/>
</svg>
